<svg width="23" height="28" viewBox="0 0 23 28" fill="none" xmlns="http://www.w3.org/2000/svg">
<path d="M0.940918 3.50261C0.940918 2.8024 1.22965 2.13088 1.74359 1.63576C2.25753 1.14064 2.95458 0.862488 3.6814 0.862488H14.6433C15.0067 0.862563 15.3552 1.00169 15.6121 1.24927L22.4633 7.84956C22.7203 8.09706 22.8647 8.43277 22.8648 8.78284V24.6236C22.8648 25.3238 22.5761 25.9953 22.0621 26.4904C21.5482 26.9855 20.8511 27.2637 20.1243 27.2637H3.6814C2.95458 27.2637 2.25753 26.9855 1.74359 26.4904C1.22965 25.9953 0.940918 25.3238 0.940918 24.6236V3.50261ZM19.557 8.78284L14.6433 4.04911V8.78284H19.557ZM11.9029 3.50261H3.6814V24.6236H20.1243V11.423H13.2731C12.9097 11.423 12.5612 11.2839 12.3042 11.0363C12.0472 10.7888 11.9029 10.453 11.9029 10.1029V3.50261ZM6.42189 15.3831C6.42189 15.033 6.56625 14.6973 6.82323 14.4497C7.0802 14.2022 7.42872 14.0631 7.79213 14.0631H16.0136C16.377 14.0631 16.7255 14.2022 16.9825 14.4497C17.2395 14.6973 17.3838 15.033 17.3838 15.3831C17.3838 15.7332 17.2395 16.069 16.9825 16.3166C16.7255 16.5641 16.377 16.7032 16.0136 16.7032H7.79213C7.42872 16.7032 7.0802 16.5641 6.82323 16.3166C6.56625 16.069 6.42189 15.7332 6.42189 15.3831ZM6.42189 20.6634C6.42189 20.3133 6.56625 19.9775 6.82323 19.7299C7.0802 19.4824 7.42872 19.3433 7.79213 19.3433H16.0136C16.377 19.3433 16.7255 19.4824 16.9825 19.7299C17.2395 19.9775 17.3838 20.3133 17.3838 20.6634C17.3838 21.0135 17.2395 21.3492 16.9825 21.5968C16.7255 21.8444 16.377 21.9834 16.0136 21.9834H7.79213C7.42872 21.9834 7.0802 21.8444 6.82323 21.5968C6.56625 21.3492 6.42189 21.0135 6.42189 20.6634Z" fill="white"/>
</svg>
