<svg width="24" height="25" viewBox="0 0 24 25" fill="none" xmlns="http://www.w3.org/2000/svg">
<path d="M7.84738 3.65332C7.48104 3.65332 7.12971 3.79352 6.87066 4.04307C6.61162 4.29263 6.46609 4.6311 6.46609 4.98402C6.46609 5.33695 6.61162 5.67542 6.87066 5.92497C7.12971 6.17453 7.48104 6.31473 7.84738 6.31473C8.21373 6.31473 8.56506 6.17453 8.82411 5.92497C9.08315 5.67542 9.22868 5.33695 9.22868 4.98402C9.22868 4.6311 9.08315 4.29263 8.82411 4.04307C8.56506 3.79352 8.21373 3.65332 7.84738 3.65332ZM3.93832 3.65332C4.2237 2.87415 4.75293 2.19943 5.45305 1.72219C6.15317 1.24494 6.98972 0.988647 7.84738 0.988647C8.70505 0.988647 9.5416 1.24494 10.2417 1.72219C10.9418 2.19943 11.4711 2.87415 11.7564 3.65332H21.6603C22.0267 3.65332 22.378 3.79352 22.637 4.04307C22.8961 4.29263 23.0416 4.6311 23.0416 4.98402C23.0416 5.33695 22.8961 5.67542 22.637 5.92497C22.378 6.17453 22.0267 6.31473 21.6603 6.31473H11.7564C11.4711 7.0939 10.9418 7.76861 10.2417 8.24586C9.5416 8.72311 8.70505 8.9794 7.84738 8.9794C6.98972 8.9794 6.15317 8.72311 5.45305 8.24586C4.75293 7.76861 4.2237 7.0939 3.93832 6.31473H2.32221C1.95587 6.31473 1.60453 6.17453 1.34549 5.92497C1.08645 5.67542 0.940918 5.33695 0.940918 4.98402C0.940918 4.6311 1.08645 4.29263 1.34549 4.04307C1.60453 3.79352 1.95587 3.65332 2.32221 3.65332H3.93832ZM16.1351 11.6375C15.7688 11.6375 15.4175 11.7777 15.1584 12.0273C14.8994 12.2769 14.7539 12.6153 14.7539 12.9683C14.7539 13.3212 14.8994 13.6596 15.1584 13.9092C15.4175 14.1588 15.7688 14.299 16.1351 14.299C16.5015 14.299 16.8528 14.1588 17.1119 13.9092C17.3709 13.6596 17.5164 13.3212 17.5164 12.9683C17.5164 12.6153 17.3709 12.2769 17.1119 12.0273C16.8528 11.7777 16.5015 11.6375 16.1351 11.6375ZM12.2261 11.6375C12.5115 10.8584 13.0407 10.1837 13.7408 9.70641C14.4409 9.22916 15.2775 8.97288 16.1351 8.97288C16.9928 8.97288 17.8294 9.22916 18.5295 9.70641C19.2296 10.1837 19.7588 10.8584 20.0442 11.6375H21.6603C22.0267 11.6375 22.378 11.7777 22.637 12.0273C22.8961 12.2769 23.0416 12.6153 23.0416 12.9683C23.0416 13.3212 22.8961 13.6596 22.637 13.9092C22.378 14.1588 22.0267 14.299 21.6603 14.299H20.0442C19.7588 15.0781 19.2296 15.7528 18.5295 16.2301C17.8294 16.7073 16.9928 16.9636 16.1351 16.9636C15.2775 16.9636 14.4409 16.7073 13.7408 16.2301C13.0407 15.7528 12.5115 15.0781 12.2261 14.299H2.32221C1.95587 14.299 1.60453 14.1588 1.34549 13.9092C1.08645 13.6596 0.940918 13.3212 0.940918 12.9683C0.940918 12.6153 1.08645 12.2769 1.34549 12.0273C1.60453 11.7777 1.95587 11.6375 2.32221 11.6375H12.2261ZM7.84738 19.6218C7.48104 19.6218 7.12971 19.762 6.87066 20.0115C6.61162 20.2611 6.46609 20.5996 6.46609 20.9525C6.46609 21.3054 6.61162 21.6439 6.87066 21.8934C7.12971 22.143 7.48104 22.2832 7.84738 22.2832C8.21373 22.2832 8.56506 22.143 8.82411 21.8934C9.08315 21.6439 9.22868 21.3054 9.22868 20.9525C9.22868 20.5996 9.08315 20.2611 8.82411 20.0115C8.56506 19.762 8.21373 19.6218 7.84738 19.6218ZM3.93832 19.6218C4.2237 18.8426 4.75293 18.1679 5.45305 17.6906C6.15317 17.2134 6.98972 16.9571 7.84738 16.9571C8.70505 16.9571 9.5416 17.2134 10.2417 17.6906C10.9418 18.1679 11.4711 18.8426 11.7564 19.6218H21.6603C22.0267 19.6218 22.378 19.762 22.637 20.0115C22.8961 20.2611 23.0416 20.5996 23.0416 20.9525C23.0416 21.3054 22.8961 21.6439 22.637 21.8934C22.378 22.143 22.0267 22.2832 21.6603 22.2832H11.7564C11.4711 23.0624 10.9418 23.7371 10.2417 24.2143C9.5416 24.6916 8.70505 24.9479 7.84738 24.9479C6.98972 24.9479 6.15317 24.6916 5.45305 24.2143C4.75293 23.7371 4.2237 23.0624 3.93832 22.2832H2.32221C1.95587 22.2832 1.60453 22.143 1.34549 21.8934C1.08645 21.6439 0.940918 21.3054 0.940918 20.9525C0.940918 20.5996 1.08645 20.2611 1.34549 20.0115C1.60453 19.762 1.95587 19.6218 2.32221 19.6218H3.93832Z" fill="white"/>
</svg>
