<svg width="30" height="24" viewBox="0 0 30 24" fill="none" xmlns="http://www.w3.org/2000/svg">
<path d="M0.631348 3.11909C0.631348 2.34254 0.939831 1.59779 1.48894 1.04869C2.03804 0.499585 2.78279 0.191101 3.55934 0.191101H16.7353C17.5118 0.191101 18.2566 0.499585 18.8057 1.04869C19.3548 1.59779 19.6633 2.34254 19.6633 3.11909V6.04708C19.6633 6.43536 19.509 6.80773 19.2345 7.08228C18.9599 7.35683 18.5876 7.51108 18.1993 7.51108C17.811 7.51108 17.4386 7.35683 17.1641 7.08228C16.8895 6.80773 16.7353 6.43536 16.7353 6.04708V3.11909H3.55934V20.687H16.7353V17.759C16.7353 17.3708 16.8895 16.9984 17.1641 16.7238C17.4386 16.4493 17.811 16.295 18.1993 16.295C18.5876 16.295 18.9599 16.4493 19.2345 16.7238C19.509 16.9984 19.6633 17.3708 19.6633 17.759V20.687C19.6633 21.4636 19.3548 22.2083 18.8057 22.7574C18.2566 23.3065 17.5118 23.615 16.7353 23.615H3.55934C2.78279 23.615 2.03804 23.3065 1.48894 22.7574C0.939831 22.2083 0.631348 21.4636 0.631348 20.687V3.11909ZM23.0202 6.47603C23.2948 6.20158 23.6671 6.04739 24.0553 6.04739C24.4435 6.04739 24.8158 6.20158 25.0903 6.47603L29.4823 10.868C29.7568 11.1426 29.9109 11.5149 29.9109 11.9031C29.9109 12.2913 29.7568 12.6636 29.4823 12.9381L25.0903 17.3301C24.8142 17.5968 24.4444 17.7443 24.0605 17.741C23.6767 17.7377 23.3095 17.5837 23.0381 17.3123C22.7666 17.0408 22.6127 16.6736 22.6093 16.2898C22.606 15.9059 22.7535 15.5361 23.0202 15.26L24.9132 13.3671H10.8793C10.491 13.3671 10.1187 13.2128 9.84411 12.9383C9.56956 12.6637 9.41532 12.2913 9.41532 11.9031C9.41532 11.5148 9.56956 11.1424 9.84411 10.8679C10.1187 10.5933 10.491 10.4391 10.8793 10.4391H24.9132L23.0202 8.54612C22.7458 8.27158 22.5916 7.89928 22.5916 7.51108C22.5916 7.12288 22.7458 6.75057 23.0202 6.47603Z" fill="white"/>
</svg>
