<svg width="28" height="26" viewBox="0 0 28 26" fill="none" xmlns="http://www.w3.org/2000/svg">
<path d="M13.0369 0.892631C13.2875 0.678288 13.6109 0.559906 13.946 0.559906C14.2811 0.559906 14.6045 0.678288 14.8551 0.892631L27.1768 11.4441C27.4344 11.6799 27.5867 12.0028 27.6017 12.3447C27.6167 12.6867 27.4932 13.0209 27.2571 13.2767C27.0211 13.5324 26.6911 13.6898 26.3369 13.7156C25.9826 13.7413 25.6319 13.6334 25.3587 13.4146L24.8987 13.0229V22.9809C24.8987 23.6805 24.6102 24.3515 24.0967 24.8462C23.5832 25.3409 22.8867 25.6188 22.1605 25.6188H5.73152C5.00532 25.6188 4.30886 25.3409 3.79535 24.8462C3.28185 24.3515 2.99336 23.6805 2.99336 22.9809V13.0229L2.53335 13.4146C2.26017 13.6334 1.9094 13.7413 1.55514 13.7156C1.20089 13.6898 0.870901 13.5324 0.634881 13.2767C0.39886 13.0209 0.275293 12.6867 0.290283 12.3447C0.305273 12.0028 0.457646 11.6799 0.715214 11.4441L13.0369 0.892631ZM5.73152 10.6752V22.9809H9.83877V16.3862C9.83877 16.0364 9.98301 15.7009 10.2398 15.4536C10.4965 15.2062 10.8447 15.0673 11.2078 15.0673H16.6842C17.0473 15.0673 17.3955 15.2062 17.6523 15.4536C17.909 15.7009 18.0532 16.0364 18.0532 16.3862V22.9809H22.1605V10.6765L13.946 3.64262L5.73152 10.6752ZM15.3151 22.9809V17.7051H12.5769V22.9809H15.3151Z" fill="white"/>
</svg>
