<svg width="23" height="28" viewBox="0 0 23 28" fill="none" xmlns="http://www.w3.org/2000/svg">
<path d="M0.532227 3.26222C0.532227 2.56202 0.820955 1.89049 1.3349 1.39537C1.84884 0.900255 2.54589 0.622101 3.27271 0.622101H14.2347C14.598 0.622176 14.9465 0.761302 15.2034 1.00888L22.0546 7.60917C22.3116 7.85668 22.456 8.19238 22.4561 8.54246V24.3832C22.4561 25.0834 22.1674 25.7549 21.6534 26.25C21.1395 26.7451 20.4424 27.0233 19.7156 27.0233H3.27271C2.54589 27.0233 1.84884 26.7451 1.3349 26.25C0.820955 25.7549 0.532227 25.0834 0.532227 24.3832V3.26222ZM19.1483 8.54246L14.2347 3.80872V8.54246H19.1483ZM11.4942 3.26222H3.27271V24.3832H19.7156V11.1826H12.8644C12.501 11.1826 12.1525 11.0435 11.8955 10.7959C11.6385 10.5484 11.4942 10.2126 11.4942 9.86251V3.26222ZM16.5737 14.2095C16.8305 14.457 16.9748 14.7927 16.9748 15.1428C16.9748 15.4928 16.8305 15.8285 16.5737 16.076L11.0927 21.3563C10.8357 21.6037 10.4873 21.7428 10.1239 21.7428C9.76059 21.7428 9.41212 21.6037 9.15517 21.3563L6.41468 18.7162C6.28381 18.5944 6.17942 18.4487 6.10761 18.2877C6.03579 18.1266 5.99799 17.9534 5.99641 17.7781C5.99483 17.6028 6.0295 17.429 6.0984 17.2668C6.16729 17.1046 6.26904 16.9572 6.3977 16.8332C6.52635 16.7093 6.67934 16.6113 6.84774 16.5449C7.01614 16.4785 7.19657 16.4451 7.37851 16.4466C7.56045 16.4482 7.74025 16.4846 7.90743 16.5538C8.0746 16.6229 8.2258 16.7235 8.3522 16.8496L10.1239 18.5564L14.6361 14.2095C14.8931 13.962 15.2416 13.823 15.6049 13.823C15.9682 13.823 16.3167 13.962 16.5737 14.2095Z" fill="white"/>
</svg>
