<svg width="522" height="222" viewBox="0 0 522 222" fill="none" xmlns="http://www.w3.org/2000/svg">
<g filter="url(#filter0_d_339_303)">
<path d="M516 107C516 164.99 401.833 212 261 212C120.167 212 6 164.99 6 107C6 49.0101 120.167 2 261 2C401.833 2 516 49.0101 516 107Z" fill="#D9D9D9"/>
<path d="M516 107C516 164.99 401.833 212 261 212C120.167 212 6 164.99 6 107C6 49.0101 120.167 2 261 2C401.833 2 516 49.0101 516 107Z" fill="black" fill-opacity="0.2"/>
<path d="M516 107C516 164.99 401.833 212 261 212C120.167 212 6 164.99 6 107C6 49.0101 120.167 2 261 2C401.833 2 516 49.0101 516 107Z" fill="black" fill-opacity="0.2"/>
<path d="M516 107C516 164.99 401.833 212 261 212C120.167 212 6 164.99 6 107C6 49.0101 120.167 2 261 2C401.833 2 516 49.0101 516 107Z" fill="black" fill-opacity="0.2"/>
<path d="M516 107C516 164.99 401.833 212 261 212C120.167 212 6 164.99 6 107C6 49.0101 120.167 2 261 2C401.833 2 516 49.0101 516 107Z" fill="black" fill-opacity="0.2"/>
<path d="M516 107C516 164.99 401.833 212 261 212C120.167 212 6 164.99 6 107C6 49.0101 120.167 2 261 2C401.833 2 516 49.0101 516 107Z" fill="black" fill-opacity="0.2"/>
<path d="M516 107C516 164.99 401.833 212 261 212C120.167 212 6 164.99 6 107C6 49.0101 120.167 2 261 2C401.833 2 516 49.0101 516 107Z" fill="#D9D9D9"/>
<path d="M261 213C331.514 213 395.399 201.233 441.693 182.171C464.837 172.641 483.633 161.268 496.658 148.587C509.687 135.904 517 121.85 517 107C517 92.1498 509.687 78.0961 496.658 65.4127C483.633 52.7325 464.837 41.3592 441.693 31.8291C395.399 12.767 331.514 1 261 1C190.486 1 126.601 12.767 80.307 31.8291C57.1625 41.3592 38.3668 52.7325 25.3416 65.4127C12.3133 78.0961 5 92.1498 5 107C5 121.85 12.3133 135.904 25.3416 148.587C38.3668 161.268 57.1625 172.641 80.307 182.171C126.601 201.233 190.486 213 261 213Z" stroke="black" stroke-width="2"/>
</g>
<defs>
<filter id="filter0_d_339_303" x="0" y="0" width="522" height="222" filterUnits="userSpaceOnUse" color-interpolation-filters="sRGB">
<feFlood flood-opacity="0" result="BackgroundImageFix"/>
<feColorMatrix in="SourceAlpha" type="matrix" values="0 0 0 0 0 0 0 0 0 0 0 0 0 0 0 0 0 0 127 0" result="hardAlpha"/>
<feOffset dy="4"/>
<feGaussianBlur stdDeviation="2"/>
<feComposite in2="hardAlpha" operator="out"/>
<feColorMatrix type="matrix" values="0 0 0 0 0 0 0 0 0 0 0 0 0 0 0 0 0 0 0.25 0"/>
<feBlend mode="normal" in2="BackgroundImageFix" result="effect1_dropShadow_339_303"/>
<feBlend mode="normal" in="SourceGraphic" in2="effect1_dropShadow_339_303" result="shape"/>
</filter>
</defs>
</svg>
